<?xml version="1.0" encoding="UTF-8"?>
<svg id="Layer_2" data-name="Layer 2" xmlns="http://www.w3.org/2000/svg" xmlns:xlink="http://www.w3.org/1999/xlink" viewBox="0 0 227.56 168.8">
  <defs>
    <style>
      .cls-1 {
        fill: url(#linear-gradient);
      }

      .cls-2 {
        fill: #2c3c63;
      }
    </style>
    <linearGradient id="linear-gradient" x1="162.45" y1="36.72" x2="54.74" y2="98.91" gradientUnits="userSpaceOnUse">
      <stop offset="0" stop-color="#eaf2d2"/>
      <stop offset="0" stop-color="#e6f0cc"/>
      <stop offset=".03" stop-color="#cfe5a7"/>
      <stop offset=".05" stop-color="#bbdc87"/>
      <stop offset=".08" stop-color="#abd46d"/>
      <stop offset=".11" stop-color="#9ece59"/>
      <stop offset=".15" stop-color="#95ca4a"/>
      <stop offset=".19" stop-color="#90c742"/>
      <stop offset=".27" stop-color="#8fc740"/>
      <stop offset=".33" stop-color="#80b147"/>
      <stop offset=".49" stop-color="#608357"/>
      <stop offset=".64" stop-color="#485f64"/>
      <stop offset=".78" stop-color="#36456d"/>
      <stop offset=".9" stop-color="#2b3573"/>
      <stop offset="1" stop-color="#283075"/>
    </linearGradient>
  </defs>
  <g id="Layer_1-2" data-name="Layer 1">
    <g>
      <path class="cls-2" d="M18.47,164.62v3.83H0v-24.63h17.98v3.84H4.57v6.4h11.89v3.77H4.57v6.79h13.9Z"/>
      <path class="cls-2" d="M27.23,143.82h4.57v20.76h12.88v3.87h-17.45v-24.63Z"/>
      <path class="cls-2" d="M74.59,168.45l-.04-16.33-8.09,13.51h-2.04l-8.09-13.3v16.12h-4.36v-24.63h3.76l9.78,16.33,9.61-16.33h3.76l.04,24.63h-4.33Z"/>
      <path class="cls-2" d="M87.14,165.85l1.58-3.55c1.97,1.58,5.1,2.71,8.13,2.71,3.83,0,5.45-1.37,5.45-3.2,0-5.31-14.64-1.83-14.64-10.98,0-3.98,3.17-7.35,9.92-7.35,2.96,0,6.05.77,8.2,2.18l-1.44,3.55c-2.22-1.3-4.64-1.94-6.79-1.94-3.8,0-5.35,1.48-5.35,3.34,0,5.24,14.6,1.83,14.6,10.87,0,3.94-3.2,7.32-9.96,7.32-3.84,0-7.67-1.2-9.71-2.96Z"/>
      <path class="cls-2" d="M129.36,143.82h1.79v23.01h14.18v1.62h-15.97v-24.63Z"/>
      <path class="cls-2" d="M168.87,161.52h-14.29l-3.13,6.93h-1.94l11.33-24.63h1.79l11.33,24.63h-1.94l-3.17-6.93ZM168.21,160.01l-6.47-14.21-6.44,14.21h12.91Z"/>
      <path class="cls-2" d="M202.16,161.94c0,4.15-3.03,6.51-9.08,6.51h-10.98v-24.63h10.27c5.28,0,8.48,2.22,8.48,6.3,0,2.92-1.65,4.82-4.12,5.63,3.48.67,5.42,2.78,5.42,6.19ZM183.89,145.37v9.82h8.41c4.26,0,6.72-1.65,6.72-4.93s-2.46-4.89-6.72-4.89h-8.41ZM200.36,161.8c0-3.52-2.57-5.07-7.28-5.07h-9.18v10.17h9.18c4.71,0,7.28-1.55,7.28-5.1Z"/>
      <path class="cls-2" d="M209.72,165.29l.81-1.34c1.69,1.76,4.82,3.1,8.13,3.1,4.93,0,7.11-2.15,7.11-4.82,0-7.39-15.38-2.96-15.38-12.03,0-3.48,2.67-6.54,8.73-6.54,2.71,0,5.52.84,7.42,2.22l-.67,1.44c-2.04-1.41-4.54-2.08-6.76-2.08-4.79,0-6.93,2.22-6.93,4.93,0,7.39,15.38,3.03,15.38,11.96,0,3.48-2.78,6.51-8.87,6.51-3.66,0-7.18-1.37-8.97-3.34Z"/>
    </g>
    <path class="cls-1" d="M131.59,126.17h-7.39c-4.31,0-8.37-1.76-11.12-4.83-.17-.19-.32-.37-.46-.54-.14.17-.29.35-.46.54-2.75,3.07-6.81,4.83-11.12,4.83h-7.39v-2h7.39c3.75,0,7.26-1.52,9.63-4.16.87-.96.94-1.35.95-1.39v-13.95l-.32-.63.32-.16v-7.45l-.05.11-47.88-22.59-3.75,7.64c1.08.48,2,1.26,2.67,2.27.9,1.38,1.21,3.03.87,4.64-.34,1.61-1.28,3-2.67,3.9-1.38.9-3.03,1.21-4.64.87-1.61-.34-3-1.29-3.9-2.67-1.86-2.85-1.06-6.68,1.79-8.54h0c1.17-.76,2.53-1.1,3.9-.98l3.92-7.98-16.82-7.94c-.41.52-.91.99-1.49,1.37-1.38.9-3.03,1.21-4.64.87-1.61-.34-3-1.29-3.9-2.67-.9-1.38-1.21-3.03-.87-4.64s1.29-3,2.67-3.9c2.85-1.86,6.68-1.06,8.54,1.79,1.09,1.66,1.27,3.66.66,5.41l6.06,2.86,7.39-16.82c-.8-.48-1.5-1.13-2.02-1.94-1.86-2.85-1.06-6.68,1.79-8.54h0c1.38-.9,3.03-1.21,4.64-.87,1.61.34,3,1.28,3.9,2.67,1.86,2.85,1.06,6.68-1.79,8.54-1.38.9-3.03,1.21-4.64.87,0,0,0,0-.01,0l-7.45,16.95,15.6,7.36,3.84-9.48c-.82-.47-1.54-1.13-2.09-1.97-.9-1.38-1.21-3.03-.88-4.64.34-1.61,1.29-3,2.67-3.9h0c2.85-1.86,6.68-1.06,8.54,1.79,1.86,2.85,1.06,6.68-1.79,8.54-1.41.92-3.05,1.19-4.58.88l-3.9,9.64,15.96,7.53,5.47-12.46c-1.02-.48-1.89-1.24-2.52-2.2-.9-1.38-1.21-3.03-.87-4.64s1.29-3,2.67-3.9c1.38-.9,3.02-1.21,4.64-.87,1.61.34,3,1.29,3.9,2.67,1.86,2.85,1.06,6.68-1.79,8.54-1.22.8-2.65,1.13-4.08.97l-5.61,12.76,22.56,10.64v-44.27l-39.63-18.7c-.26.24-.53.46-.83.65-2.85,1.86-6.68,1.06-8.54-1.79-1.86-2.84-1.06-6.68,1.79-8.54,2.85-1.86,6.68-1.06,8.54,1.79h0c1.26,1.93,1.34,4.32.29,6.27l19.35,9.13,3.97-9.04c-.45-.38-.84-.82-1.18-1.33-.9-1.38-1.21-3.03-.87-4.64.34-1.61,1.28-3,2.67-3.9h0c1.38-.9,3.03-1.21,4.64-.87,1.61.34,3,1.29,3.9,2.67,1.86,2.85,1.06,6.68-1.79,8.54-1.73,1.13-3.83,1.28-5.63.58l-3.89,8.86,17.22,8.13V12.27c-1.69-.28-3.2-1.25-4.16-2.71-.91-1.39-1.22-3.03-.88-4.65.34-1.61,1.29-2.99,2.67-3.9,1.38-.9,3.03-1.22,4.64-.88,1.61.34,2.99,1.29,3.9,2.67s1.22,3.03.88,4.64c-.34,1.61-1.29,2.99-2.67,3.9-.73.47-1.54.79-2.38.93v31.66l4.14-12.04c-.22-.44-.39-.9-.51-1.39-.37-1.61-.1-3.26.77-4.66,1.8-2.89,5.61-3.78,8.5-1.98,1.4.87,2.38,2.24,2.75,3.84.24,1.03.21,2.08-.07,3.07l6.54,8.94c.51.06,1.01.18,1.5.37l3.24-18.26s-.06-.04-.09-.06c-1.4-.87-2.38-2.24-2.75-3.84-.37-1.61-.1-3.26.77-4.66h0c.87-1.4,2.23-2.38,3.84-2.75,1.61-.37,3.26-.1,4.66.77,1.4.87,2.38,2.24,2.75,3.84.37,1.61.1,3.26-.77,4.66-.05.09-.11.18-.17.26l6.99,21.59c.56-.16,1.14-.25,1.75-.25,1.65,0,3.2.65,4.36,1.82,2.4,2.41,2.39,6.33-.02,8.73s-6.33,2.39-8.73-.02c-2.4-2.41-2.39-6.33.02-8.73.25-.25.52-.47.8-.67l-6.76-20.89c-.62.42-1.32.73-2.08.91-.89.21-1.8.22-2.67.03l-3.29,18.5-.18-.03c1.07.86,1.82,2.05,2.13,3.4.37,1.61.1,3.26-.77,4.66-1.8,2.89-5.61,3.78-8.5,1.98-1.4-.87-2.38-2.24-2.75-3.84-.37-1.61-.1-3.26.77-4.66.85-1.37,2.16-2.29,3.61-2.69l-5.2-7.1c-.87,1.17-2.11,1.98-3.55,2.32-1.61.37-3.26.1-4.66-.77-.28-.17-.53-.36-.78-.57l-5.61,16.32v52.8l17.25-8.61c-.32-1-.38-2.07-.15-3.13.34-1.61,1.29-3,2.67-3.9.48-.32,1-.56,1.53-.72l-6.82-7.29c-2.42,1.52-5.66,1.19-7.72-.94-1.15-1.19-1.76-2.75-1.74-4.39.03-1.65.69-3.19,1.88-4.33s2.76-1.75,4.39-1.74c1.59.03,3.08.65,4.21,1.76l6.28-6.06c-1.96-2.43-1.81-6.01.45-8.25h0c2.41-2.4,6.33-2.39,8.73.02,1.16,1.17,1.8,2.72,1.8,4.37,0,1.65-.65,3.2-1.82,4.36-2.15,2.14-5.49,2.36-7.9.68l.19.2-6.53,6.31c.45.89.68,1.87.66,2.89-.02,1.41-.51,2.73-1.39,3.8l7.82,8.37c1.78.19,3.46,1.15,4.51,2.76,1.86,2.85,1.06,6.68-1.79,8.54-2.76,1.8-6.44,1.11-8.36-1.52l-18.16,9.06v13.52s.05.38.95,1.38c2.38,2.65,5.89,4.16,9.63,4.16h7.39v2ZM136.52,88.24c-.71.04-1.41.26-2.04.67h0c-.93.61-1.57,1.55-1.8,2.64-.23,1.09-.02,2.21.59,3.14,1.26,1.93,3.85,2.47,5.78,1.21,1.93-1.26,2.47-3.85,1.21-5.78-.79-1.21-2.1-1.87-3.45-1.89l-.15.14-.13-.14ZM55.15,83.74c-1.93,1.26-2.47,3.85-1.21,5.78.61.93,1.55,1.57,2.64,1.8,1.09.23,2.2.02,3.14-.59.93-.61,1.57-1.55,1.8-2.64s.02-2.21-.59-3.14c-1.26-1.93-3.85-2.47-5.78-1.21h0ZM124.81,69.82c-1.09,0-2.12.42-2.9,1.17h0c-.8.77-1.25,1.82-1.27,2.93-.02,1.11.4,2.17,1.17,2.97,1.6,1.65,4.25,1.7,5.9.1.8-.77,1.25-1.82,1.27-2.93.02-1.11-.4-2.17-1.17-2.97s-1.82-1.25-2.93-1.27c-.02,0-.05,0-.07,0ZM95.36,60.64c-.8,0-1.59.23-2.27.68h0c-1.93,1.26-2.47,3.85-1.21,5.78,1.26,1.93,3.85,2.47,5.78,1.21,1.93-1.26,2.47-3.85,1.21-5.78-.61-.93-1.55-1.57-2.64-1.8-.29-.06-.58-.09-.86-.09ZM40.18,57.19c-.8,0-1.59.23-2.27.68-.93.61-1.57,1.55-1.8,2.64-.23,1.09-.02,2.21.59,3.14.61.93,1.55,1.57,2.64,1.8,1.09.23,2.21.02,3.14-.59,1.93-1.26,2.47-3.85,1.21-5.78-.61-.93-1.55-1.57-2.64-1.8-.29-.06-.58-.09-.86-.09ZM76.4,55.47c-.78,0-1.57.22-2.28.68h0c-.93.61-1.57,1.55-1.8,2.64-.23,1.09-.02,2.21.59,3.14,1.26,1.93,3.85,2.47,5.78,1.21,1.93-1.26,2.47-3.85,1.21-5.78-.8-1.22-2.14-1.89-3.5-1.89ZM137.27,56.68c-1.63,1.62-1.64,4.27-.02,5.9,1.62,1.63,4.27,1.64,5.9.02.79-.79,1.23-1.83,1.23-2.95s-.43-2.16-1.21-2.95c-1.62-1.63-4.27-1.64-5.9-.02h0ZM157.46,43.39c-1.11,0-2.15.43-2.94,1.21h0c-1.63,1.62-1.64,4.27-.02,5.9,1.62,1.63,4.27,1.64,5.9.02,1.63-1.62,1.64-4.27.02-5.9-.79-.79-1.83-1.23-2.95-1.23h-.01ZM135.04,41.67c-1.39,0-2.76.7-3.55,1.97-.59.95-.77,2.07-.52,3.15.25,1.09.91,2.01,1.86,2.6,1.95,1.21,4.53.62,5.75-1.34.59-.95.77-2.07.52-3.15s-.91-2.01-1.86-2.6c-.68-.43-1.45-.63-2.2-.63ZM60.32,40.62h0c-1.93,1.26-2.47,3.85-1.21,5.78.61.93,1.55,1.57,2.64,1.8,1.09.23,2.21.02,3.14-.59,1.93-1.26,2.47-3.85,1.21-5.78-.61-.93-1.55-1.57-2.64-1.8-1.09-.23-2.21-.02-3.14.59ZM123.27,24.92c-1.39,0-2.76.7-3.55,1.97-.59.95-.77,2.07-.52,3.15.25,1.09.91,2.01,1.86,2.6.95.59,2.06.77,3.15.52,1.08-.25,2.01-.91,2.6-1.86.59-.95.77-2.07.52-3.15-.25-1.09-.91-2.01-1.86-2.6-.68-.43-1.45-.63-2.2-.63ZM67.77,22.7c-.78,0-1.57.22-2.27.68-1.93,1.26-2.47,3.85-1.21,5.77,1.26,1.92,3.85,2.47,5.77,1.21.35-.23.66-.5.93-.84,1.18-1.41,1.29-3.39.28-4.94h0c-.8-1.22-2.14-1.89-3.5-1.89ZM98.26,21.65h0c-.93.61-1.57,1.55-1.8,2.64s-.02,2.21.59,3.14c1.26,1.93,3.85,2.47,5.78,1.21,1.93-1.26,2.47-3.85,1.21-5.78-.61-.93-1.55-1.57-2.64-1.8-1.09-.23-2.21-.02-3.14.59ZM143.67,12.35c-.32,0-.64.04-.95.11-1.09.25-2.01.91-2.6,1.86h0c-.59.95-.77,2.07-.52,3.15.25,1.09.91,2.01,1.86,2.6.95.59,2.07.77,3.15.52,1.09-.25,2.01-.91,2.6-1.86.59-.95.77-2.07.52-3.15s-.91-2.01-1.86-2.6c-.67-.42-1.43-.63-2.2-.63ZM112.61,2c-.8,0-1.59.23-2.28.68-.94.61-1.58,1.55-1.81,2.64-.23,1.09-.02,2.2.6,3.14.78,1.18,2.09,1.89,3.49,1.89.8,0,1.59-.24,2.29-.69.93-.61,1.57-1.55,1.8-2.63.23-1.09.02-2.2-.6-3.14h0c-.61-.94-1.55-1.58-2.64-1.81-.29-.06-.57-.09-.86-.09Z"/>
  </g>
</svg>